<svg xmlns="http://www.w3.org/2000/svg" width="43.09" height="7.608" viewBox="0 0 43.09 7.608">
  <g id="Group_45" data-name="Group 45" transform="translate(-45.299 -53.754)">
    <line id="Line_45" data-name="Line 45" x2="43.09" transform="translate(45.3 57.372)" fill="#ff1d25"/>
    <g id="Group_44" data-name="Group 44" transform="translate(45.301 53.754)">
      <path id="Path_20" data-name="Path 20" d="M88.256,57.423c-.106.047-.055.035-.012.02h0L88,57.615l-.247.172-.27.176-.736.533a2.947,2.947,0,0,0-.325.274.808.808,0,0,1-.262.18.718.718,0,0,0-.384.3,1.411,1.411,0,0,1-.509.486,5.986,5.986,0,0,0-.607.415c-.18.133-.368.27-.525.231-.341-.094-.693.18-1.05.552a1.958,1.958,0,0,1-.259.274.25.25,0,0,1-.333.031c-.247-.231-.49-.114-.733-.145a.929.929,0,0,0-.47.063.511.511,0,0,1-.533.016c-.157-.11-.309.047-.462.118a.727.727,0,0,1-.6.008.581.581,0,0,1-.286-.345c-.063-.153-.149-.208-.239-.1-.106.121-.208.184-.321.067a1.141,1.141,0,0,0-1.575-.266.625.625,0,0,1-.791.012c-.168-.133-.356-.055-.513.176-.121.176-.243.212-.384.145l-.987-.447a1.1,1.1,0,0,0-.333-.106L73.123,60.4a1.023,1.023,0,0,0-.917.349.218.218,0,0,1-.192.094c-.447-.106-.9.161-1.34-.125-.133-.086-.266.051-.4.067a2.3,2.3,0,0,1-.4-.035c-.2-.329-.419-.239-.642-.18a.406.406,0,0,1-.266-.047c-.133-.063-.259-.137-.388.035-.027.031-.09-.008-.121-.051a.366.366,0,0,0-.321-.168h-.474l-.133.012c-.192-.012-.321.38-.5.372s-.356-.1-.533.027l-.313.259a.475.475,0,0,1-.525.141.37.37,0,0,0-.333-.012c-.349.184-.666.02-.979-.278-.063-.059-.129-.157-.188-.141-.364.086-.713-.176-1.069-.208l-.07,0a1.114,1.114,0,0,1-.725-.29,1.535,1.535,0,0,0-.192-.133.5.5,0,0,0-.6.039.947.947,0,0,1-.255.192c-.2.071-.353.407-.564.435l-1.277.192-.067-.008a.793.793,0,0,1-.576-.333c-.2.074-.364.368-.576.349a.891.891,0,0,1-.266-.051.488.488,0,0,1-.188-.145.678.678,0,0,0-1.046-.1.827.827,0,0,1-.791.227c-.023-.008-.047-.016-.067,0-.45.364-.885.035-1.328-.1a.322.322,0,0,1-.024-.094.177.177,0,0,1,.043-.09l.125-.1.02-.1-.6-.168c-.059-.016-.082.121-.067.337s0,.3-.07.3a3.2,3.2,0,0,1-1.277-.059,3.138,3.138,0,0,0-.47-.051,1.133,1.133,0,0,1-.458-.18c-.157-.125-.306-.165-.458-.016-.227.243-.435.157-.654-.149a3.747,3.747,0,0,0-.572-.693c-.208-.2-.4-.219-.56-.027-.043.059-.086.1-.168.027a2.074,2.074,0,0,0-.854-.517l-.4-.133a.657.657,0,0,1-.266-.18,2.779,2.779,0,0,0-.983-.658l-.6-.309a1.448,1.448,0,0,1-.364-.27.312.312,0,0,0-.137-.129c-.149-.074-.188-.094-.2-.114a.19.19,0,0,0-.067-.024c-.212-.027-.184.012.012-.039a.8.8,0,0,0,.306-.149,1.827,1.827,0,0,1,.3-.188,1.675,1.675,0,0,0,.36-.247.515.515,0,0,1,.36-.165l.137.024a.2.2,0,0,0,.121-.047,1.2,1.2,0,0,1,.58-.27l.043.027c.02.341.333.255.584.235a2.574,2.574,0,0,0,.537-.137.32.32,0,0,1,.325.031c.192.184.341.192.5-.227.141-.36.337-.5.537-.27.016.02.039.024.059.035l-.008-.031c.133.153.133.165.294-.09l-.008.035a1.645,1.645,0,0,1,.662-.251.354.354,0,0,0,.247-.168.449.449,0,0,1,.321-.176c.192-.023.36.035.419.513a1.622,1.622,0,0,0,.063.247c.059.165.149.255.235.215a.86.86,0,0,1,.666-.059c.121.051.262-.039.392-.11l.646-.384c.215-.118.427-.262.662-.149.1.051.219-.02.333-.047.231-.059.443-.023.588.443.02.067.074.094.114.133.09.082.247-.09.266-.3v-.286c.023-.266.129-.435.235-.392l.4.165a.874.874,0,0,0,.266.035,1.561,1.561,0,0,1,.8.137c.227-.2.439-.027.658.09l-.02-.031c.082.074.161.192.247.212a3.514,3.514,0,0,0,.537.055c.114.008.231-.031.337.031a.644.644,0,0,0,.791-.047c.235-.168.482-.133.713.157s.478.188.717.266c.02.008.043-.016.063-.031.356-.223.356-.223.756-.039.071.035.129-.035.18-.137l.1-.192c.082-.125.168-.082.212.161.047.266.121.4.251.353a.9.9,0,0,1,.733.031,1.415,1.415,0,0,0,.537.1c.18.016.227-.082.29-.58.023-.2.137-.29.2-.165l.086.219c.114.3.129.321.251.027.114-.278.239-.407.407-.4a2.118,2.118,0,0,0,.94-.149.319.319,0,0,1,.266-.016c.27.129.541.031.807.07.219.035.4-.133.541-.478a.975.975,0,0,1,.1-.192c.059-.082.133-.118.188-.016a.873.873,0,0,0,.811.556c.039,0,.078-.063.118-.1a1.261,1.261,0,0,0-.09-.192.307.307,0,0,1-.059-.227c0-.027.039-.055.059-.051a1.558,1.558,0,0,1,.709.431c.1.078.176,0,.231-.18l.047-.1c.074-.141.168-.172.251-.082l.345.443c.168.192.278.219.407-.161.078-.223.176-.255.294-.114.055.071.149.165.18.118.168-.251.349-.1.521-.11a8,8,0,0,0,.807-.118c.09-.016.18-.067.262.031a.858.858,0,0,0,.987.243c.078-.023.1-.157.09-.321a.428.428,0,0,1,.024-.118.418.418,0,0,1,.2-.074,4.943,4.943,0,0,1,1.073.086,2.282,2.282,0,0,0,1.344-.067c.149-.051.262.02.368.231a5.553,5.553,0,0,0,.317.529c.027.039.09.008.129-.024a.442.442,0,0,0,.106-.165c.251-.56.56-.8.913-.74a4.3,4.3,0,0,1,1,.274,1.836,1.836,0,0,0,.666.145c.145,0,.259-.125.317-.435l.1-.364c.035-.11.137-.094.168.031l.157.635a.224.224,0,0,0,.051.082l.039-.114.078-.392c.1-.341.255-.537.447-.564s.4-.114.6.063c.063.067.129.168.192.188.157.071.317,0,.466.255l.306.658c.047.078.137.129.188.114.172-.059.29-.188.251-.58-.02-.2.047-.3.118-.266s.121.141.168.255.086.278.129.306a2,2,0,0,1,.544.67.49.49,0,0,0,.184.176l.333.145a1.869,1.869,0,0,1,.4.192,10.358,10.358,0,0,0,1.14.65c.067.039.137.1.137.133,0,.1.07.2.29.317a.614.614,0,0,1,.243.176c.039.051.106.1.282.118l.078.012a.4.4,0,0,0,.145,0C88.42,57.368,88.4,57.361,88.256,57.423ZM51.77,55.794c-.031-.008-.071.047-.1.09a.371.371,0,0,0-.027.114c.02.071.027.184.055.2s.082-.024.1-.078C51.841,56,51.821,55.8,51.77,55.794Zm5.465-.2-.259-.023c-.215.039-.372-.039-.517.125a.3.3,0,0,0-.059.231.4.4,0,0,0,.027.114c.149.219.3.38.49.251.1-.071.215-.078.317-.165a.679.679,0,0,0,.125-.282C57.387,55.751,57.313,55.6,57.235,55.594Zm19.01.168a.309.309,0,0,0-.031-.118c-.094-.2-.2-.439-.337-.384-.212.086-.384-.031-.548-.294a.06.06,0,0,0-.063-.024.1.1,0,0,0-.059.043.3.3,0,0,0-.023.247l.212.529c.078.168.18.259.3.192l.18-.106.274.035C76.2,55.892,76.237,55.856,76.245,55.762Zm4.305.219a.241.241,0,0,0-.039-.1c-.172-.074-.341-.243-.521-.11a.21.21,0,0,0-.047.094c-.027.106-.012.192.043.215l.231.082.294-.1S80.554,56.005,80.55,55.982Zm3.917-.341c.02-.121-.067-.313-.153-.309-.051,0-.09.078-.118.114a.347.347,0,0,0,.129.306C84.393,55.782,84.456,55.735,84.468,55.641Z" transform="translate(-45.3 -53.754)" fill="#fff"/>
    </g>
  </g>
</svg>
