<?xml version="1.0" encoding="utf-8"?>
<!-- Generator: Adobe Illustrator 23.0.4, SVG Export Plug-In . SVG Version: 6.00 Build 0)  -->
<svg version="1.1" id="Layer_1" xmlns="http://www.w3.org/2000/svg" xmlns:xlink="http://www.w3.org/1999/xlink" x="0px" y="0px"
	 viewBox="0 0 303.54 16.35" style="enable-background:new 0 0 303.54 16.35;" xml:space="preserve">
<g>
	<g>
		<g>
			<path fill="#ff3a44" d="M302.57,13.75c-0.75,0.14-0.4,0.35-0.14,0.58c0.06,0.05,0.07,0.12,0.04,0.17c-0.25,0.35-1.19,0.44-1.78,0.67
				c-0.42,0.16-1.11,0.1-1.76,0.03c-0.62-0.06-1.27-0.14-1.88-0.15c-1.72,0-3.44-0.1-5.18-0.23c-0.77-0.06-1.56-0.05-2.31-0.03
				c-0.64,0.02-1.25-0.03-1.84-0.17c-0.93-0.22-1.87-0.32-2.7-0.15c-1.13,0.22-2.27,0.17-3.59-0.01c-1.38-0.19-2.82-0.28-4.24-0.39
				c-1.28-0.1-2.58-0.2-3.67-0.52c-2.35-0.68-4.84-0.75-7.36-0.78c-0.62-0.01-1.21,0.07-1.84,0.07c-0.78-0.01-1.64,0.02-2.34-0.1
				c-1.71-0.29-3.43-0.29-5.14-0.43c-1.12-0.09-2.2-0.15-3.29-0.13c-1.25,0.02-2.48,0.01-3.74-0.22c-1.11-0.2-2.19-0.08-3.26-0.06
				c-1.43,0.04-2.81-0.04-4.22-0.22c-0.82-0.1-1.44-0.27-1.98-0.53c-0.44-0.21-1.04-0.31-1.69-0.22c-0.73,0.11-1.46,0.15-2.25-0.04
				c-3.54-0.84-7.24-1.14-11.05-0.89c-1.87,0.12-3.67,0.12-5.57-0.23c-1.19-0.21-2.51-0.18-3.64,0.06
				c-0.85,0.18-1.72,0.18-2.71,0.06c-2.3-0.29-4.61-0.58-6.93-0.83c-0.77-0.08-1.55-0.17-2.33-0.21l-8.07-0.32
				c-2.24-0.1-4.42-0.11-6.46,0.21c-0.41,0.07-0.93,0.11-1.36,0.08c-3.13-0.21-6.32,0.05-9.42-0.38c-0.95-0.13-1.88,0.02-2.81,0.01
				c-0.94,0-1.88-0.07-2.82-0.11c-1.38-0.44-2.94-0.36-4.51-0.31c-0.62,0.02-1.27-0.02-1.88-0.08c-0.93-0.09-1.82-0.19-2.74,0
				c-0.19,0.04-0.62-0.01-0.85-0.07c-0.7-0.17-1.46-0.23-2.26-0.24l-3.32-0.04l-0.95,0c-1.34-0.03-2.27,0.43-3.52,0.41
				c-1.26-0.03-2.51-0.15-3.75,0c-0.75,0.09-1.48,0.2-2.21,0.31c-1.19,0.18-2.39,0.26-3.7,0.15c-0.75-0.06-1.6-0.09-2.34-0.02
				c-2.45,0.22-4.7,0.01-6.91-0.37c-0.42-0.07-0.89-0.2-1.3-0.18c-2.57,0.12-5.03-0.18-7.55-0.21l-0.47-0.01
				c-1.77,0.04-3.45-0.12-5.11-0.32c-0.45-0.06-0.89-0.12-1.35-0.16c-1.41-0.12-2.82-0.13-4.2,0.07c-0.59,0.09-1.17,0.21-1.78,0.26
				c-1.43,0.11-2.5,0.54-3.99,0.59c-2.99,0.12-5.98,0.25-8.98,0.37l-0.47,0c-1.44,0.01-2.81-0.09-4.06-0.34
				c-1.39,0.13-2.56,0.52-4.04,0.53c-0.63,0.01-1.26,0.01-1.88-0.01c-0.46-0.02-0.92-0.07-1.34-0.15c-2.41-0.41-4.85-0.33-7.34,0.07
				c-1.79,0.3-3.63,0.48-5.57,0.43c-0.15,0-0.33-0.01-0.47,0.02c-3.14,0.56-6.23,0.26-9.34,0.21c-0.08,0-0.2-0.08-0.17-0.11
				c0.05-0.05,0.18-0.1,0.3-0.12c0.29-0.05,0.6-0.1,0.88-0.15c0.08-0.02,0.08-0.09,0.12-0.13l-4.2-0.06c-0.39,0-0.56,0.17-0.44,0.43
				c0.13,0.27,0.02,0.37-0.47,0.38c-3,0.1-5.99,0.37-8.99,0.3c-1.08-0.03-2.21,0.08-3.31,0.09c-1.09,0.01-2.22,0.02-3.25-0.07
				c-1.1-0.1-2.15-0.11-3.23,0.08c-1.58,0.28-3.05,0.26-4.59,0.08C36.39,9.84,35,9.76,33.62,9.71c-1.45-0.05-2.84,0.11-3.91,0.6
				c-0.31,0.15-0.62,0.27-1.19,0.26c-2.74-0.04-4.01,0.03-6,0.3c-0.92,0.12-1.85,0.25-2.77,0.37c-0.63,0.08-1.27,0.15-1.85,0.07
				c-2.25-0.29-4.59-0.09-6.95,0.19c-1.4,0.16-2.8,0.32-4.2,0.49c-1.27,0.14-2.22,0-2.62-0.41c-0.3-0.31-0.28-0.71-1.03-0.91
				C2.03,10.4,1.72,9.99,1.61,9.51c-0.04-0.17-0.2-0.36-0.5-0.46c-1.54-0.49-1.38-1.01-0.05-1.69c0.89-0.45,1.46-0.99,2.08-1.5
				C3.59,5.5,4.15,5.22,5.21,5.12c1-0.1,1.72-0.36,2.51-0.61c0.94-0.3,1.58-0.29,2.55-0.03c0.36,0.09,0.61,0.24,0.99,0.32
				c0.21,0.04,0.68,0.04,0.86-0.02c1.35-0.43,2.72-0.27,4.09-0.28c0.11,0,0.28,0.06,0.29,0.1c0.23,0.98,2.41,0.81,4.19,0.84
				c1.23,0.01,2.53-0.12,3.8-0.2c0.81-0.05,1.64-0.07,2.29,0.08c1.4,0.32,2.45,0.27,3.55-0.36c0.95-0.54,2.33-0.68,3.76-0.38
				c0.13,0.03,0.29,0.03,0.43,0.05l-0.08-0.04c0.97,0.2,0.97,0.2,2.1-0.12L36.47,4.5c1.56-0.17,3.11-0.32,4.68-0.45
				c0.67-0.05,1.2-0.17,1.72-0.32c0.68-0.19,1.44-0.28,2.25-0.33c1.37-0.09,2.54-0.07,2.98,0.49c0.08,0.1,0.29,0.2,0.48,0.28
				c0.42,0.18,1.05,0.27,1.67,0.19c1.55-0.19,3.06-0.32,4.67-0.28c0.88,0.02,1.87-0.14,2.78-0.25c1.53-0.21,3.02-0.42,4.54-0.64
				c1.51-0.2,3.01-0.43,4.65-0.35c0.74,0.04,1.57-0.08,2.35-0.14c1.62-0.13,3.12-0.14,4.16,0.39c0.16,0.08,0.53,0.1,0.82,0.14
				c0.64,0.08,1.73-0.18,1.86-0.43c0.05-0.11-0.06-0.24,0-0.35c0.16-0.33,0.89-0.56,1.65-0.53c0.93,0.04,1.85,0.09,2.78,0.13
				c0.62,0.02,1.26,0.01,1.9,0c1.9-0.05,3.8-0.11,5.67,0.02c1.59-0.28,3.11-0.11,4.64,0L92.6,2.04c0.58,0.08,1.14,0.2,1.74,0.21
				c1.26,0.02,2.53,0,3.8,0c0.79,0,1.62-0.06,2.36,0c1.91,0.17,3.7,0.12,5.59-0.14c1.68-0.24,3.42-0.22,5.05,0.11
				c1.55,0.31,3.36,0.18,5.05,0.27c0.14,0.01,0.31-0.02,0.46-0.04c2.52-0.29,2.52-0.29,5.33-0.08c0.51,0.04,0.91-0.05,1.27-0.18
				c0.23-0.08,0.45-0.17,0.7-0.24c0.58-0.16,1.17-0.11,1.47,0.19c0.33,0.32,0.86,0.49,1.78,0.42c1.74-0.11,3.44-0.14,5.19,0.01
				c1.22,0.1,2.52,0.1,3.78,0.13c1.28,0.03,1.6-0.09,2.04-0.7c0.17-0.24,0.96-0.35,1.43-0.19c0.23,0.08,0.41,0.18,0.61,0.27
				c0.82,0.37,0.91,0.4,1.77,0.04c0.81-0.34,1.7-0.49,2.9-0.47c2.23,0.03,4.44-0.01,6.64-0.16c0.61-0.04,1.29-0.05,1.88,0
				c1.89,0.19,3.81,0.09,5.7,0.17c1.54,0.06,2.79-0.13,3.82-0.54c0.21-0.08,0.44-0.17,0.71-0.22c0.42-0.09,0.95-0.13,1.32,0
				c1.63,0.57,3.63,0.72,5.72,0.76c0.28,0,0.56-0.07,0.84-0.1c-0.21-0.08-0.39-0.19-0.64-0.25c-0.31-0.08-0.5-0.16-0.4-0.28
				c0.03-0.03,0.27-0.06,0.41-0.05c1.77,0.08,3.38,0.37,5,0.64c0.67,0.11,1.23,0.03,1.63-0.18c0.09-0.05,0.21-0.08,0.33-0.12
				c0.53-0.16,1.19-0.18,1.77-0.06c0.84,0.17,1.59,0.42,2.42,0.6c1.18,0.26,1.96,0.32,2.9-0.13c0.56-0.26,1.25-0.28,2.07-0.09
				c0.39,0.09,1.04,0.23,1.27,0.17c1.2-0.29,2.46-0.06,3.69-0.03c1.9,0.04,3.81,0.05,5.7,0.05c0.64,0,1.27-0.04,1.85,0.1
				c2.2,0.52,4.57,0.56,6.96,0.53c0.56-0.01,0.73-0.16,0.64-0.37c-0.02-0.05,0.09-0.13,0.19-0.14c0.46-0.03,0.94-0.07,1.4-0.05
				c2.54,0.12,5.09,0.21,7.59,0.43c3.18,0.28,6.33,0.39,9.48,0.33c1.04-0.02,1.84,0.1,2.6,0.4c0.69,0.27,1.43,0.53,2.2,0.77
				c0.2,0.06,0.62,0.04,0.9,0.02c0.29-0.03,0.55-0.09,0.77-0.16c1.78-0.59,3.99-0.76,6.47-0.56c2.36,0.19,4.73,0.42,7.05,0.71
				c1.57,0.19,3.12,0.36,4.7,0.46c1.02,0.07,1.83-0.04,2.27-0.39c0.19-0.15,0.48-0.27,0.75-0.4c0.26-0.12,0.97-0.05,1.19,0.12
				c0.36,0.29,0.69,0.56,1.05,0.85c0.06,0.05,0.22,0.08,0.34,0.12c0.1-0.04,0.22-0.07,0.29-0.12c0.2-0.15,0.32-0.32,0.58-0.45
				c0.76-0.37,1.84-0.54,3.2-0.49c1.43,0.06,2.85,0.16,4.21,0.44c0.44,0.09,0.89,0.21,1.34,0.24c1.09,0.08,2.25-0.07,3.27,0.21
				c0.79,0.23,1.36,0.57,2.12,0.82c0.32,0.1,0.97,0.16,1.33,0.12c1.23-0.13,2.07-0.38,1.84-0.97c-0.12-0.29,0.38-0.5,0.87-0.49
				c0.52,0,0.87,0.14,1.17,0.3c0.29,0.15,0.59,0.41,0.9,0.43c1.55,0.11,2.7,0.46,3.79,0.89c0.32,0.12,0.85,0.21,1.29,0.24
				c0.78,0.05,1.57,0.05,2.36,0.07c0.94,0.03,1.93-0.01,2.83,0.12c2.7,0.38,5.36,0.43,8.03,0.53c0.47,0.02,0.95,0.18,0.94,0.38
				c-0.03,0.58,0.43,1.04,1.93,1.43c1.06,0.27,1.48,0.71,1.64,1.14c0.2,0.55,0.65,1.07,1.86,1.51c0.31,0.11,0.49,0.34,0.5,0.5
				c0.03,0.43,0.51,0.84,0.91,1.24C303.8,13.2,303.63,13.55,302.57,13.75z M45.52,3.97c-0.23,0-0.5,0.08-0.72,0.14
				c-0.1,0.03-0.12,0.1-0.18,0.15c0.13,0.08,0.2,0.22,0.39,0.23c0.19,0.02,0.58-0.06,0.71-0.13C46.02,4.21,45.87,3.97,45.52,3.97z
				 M84.09,2.33c-0.77,0.01-1.54,0.02-1.84,0.02c-1.53,0.09-2.63,0.02-3.64,0.25c-0.32,0.07-0.48,0.16-0.4,0.29
				c0.03,0.05,0.1,0.11,0.2,0.14c1.04,0.24,2.12,0.41,3.45,0.22c0.73-0.1,1.53-0.14,2.24-0.26c0.36-0.06,0.65-0.23,0.88-0.37
				C85.16,2.49,84.62,2.32,84.09,2.33z M218.33,3.69c0.02-0.04-0.11-0.11-0.21-0.15c-0.65-0.28-1.38-0.6-2.34-0.57
				c-1.51,0.04-2.72-0.16-3.87-0.53c-0.11-0.03-0.3-0.04-0.44-0.05c-0.14,0-0.3,0.01-0.42,0.03c-0.28,0.06-0.39,0.18-0.18,0.29
				c0.45,0.25,0.93,0.49,1.47,0.71c0.56,0.23,1.27,0.37,2.1,0.33c0.45-0.03,0.9-0.05,1.26-0.07c0.71,0.05,1.33,0.09,1.94,0.13
				C218.01,3.83,218.27,3.8,218.33,3.69z M248.69,5.5c-0.02-0.05-0.16-0.12-0.28-0.14c-1.2-0.17-2.37-0.44-3.64-0.34
				c-0.14,0.01-0.29,0.05-0.36,0.09c-0.19,0.12-0.08,0.23,0.31,0.28c0.6,0.07,1.21,0.14,1.61,0.19c0.84,0,1.46,0,2.07,0
				C248.51,5.58,248.7,5.53,248.69,5.5z M276.38,6.15c0.15-0.21-0.43-0.5-1.05-0.47c-0.37,0.02-0.65,0.15-0.87,0.21
				c-0.01,0.24,0.4,0.42,0.89,0.46C275.83,6.4,276.27,6.31,276.38,6.15z"/>
		</g>
	</g>
</g>
</svg>
